<svg width="267" height="59" viewBox="0 0 267 59" fill="none" xmlns="http://www.w3.org/2000/svg">
<path d="M1.98255 28.747C4.95638 30.6304 8.97104 32.0677 12.837 32.0677C15.8604 32.0677 18.9829 31.0269 18.9829 28.0035C18.9829 25.0793 15.1665 24.6827 10.0614 23.0471C5.55114 21.808 1.13997 19.4785 1.13997 13.4318C1.13997 6.79022 6.88937 2.08167 14.6709 2.08167C19.2307 2.08167 22.7002 2.77556 25.6245 4.85724L23.7906 11.3005C21.1637 10.1606 18.0908 9.61536 14.8691 9.61536C11.7466 9.61536 9.21886 10.5075 9.21886 12.9361C9.21886 15.7117 13.9274 16.356 18.5864 17.6942C23.0967 18.8838 27.4088 20.5689 27.4088 27.2105C27.4088 34.4964 21.8081 39.3041 12.837 39.3041C8.12845 39.3041 2.67644 37.9163 0 34.8433L1.98255 28.747Z" fill="#CEB3D5"/>
<path d="M32.2165 41.0388V20.7177L29.4409 20.0238V14.1257C29.6887 13.9274 31.5722 13.3327 33.406 13.3327C35.8346 13.3327 38.6102 13.7787 39.4528 16.4552C40.7415 14.4726 43.5666 13.0353 47.383 13.0353C53.5289 13.0353 57.2462 16.703 57.2462 24.881C57.2462 32.6625 53.5785 39.1554 45.0039 39.1554C43.1701 39.1554 41.5345 38.7589 40.2458 38.1641V48.1264L33.5052 48.6716C32.4147 47.036 32.2165 45.0535 32.2165 41.0388ZM40.1963 32.1173C41.2867 33.1582 42.5258 33.406 44.0127 33.406C47.8786 33.406 48.969 29.2922 48.969 25.9219C48.969 22.3533 48.3247 19.0821 44.0622 19.0821C42.3771 19.0821 41.138 19.6273 40.1963 20.2716V32.1173V32.1173Z" fill="#CEB3D5"/>
<path d="M60.9138 31.9191V0.693893L68.3484 0C69.0423 1.18953 69.3892 3.22165 69.3892 5.60071V31.473L73.3543 32.0678V37.9658C72.1648 38.7093 69.4883 39.1058 68.051 39.1058C62.8468 39.1058 60.9138 37.2224 60.9138 31.9191Z" fill="#CEB3D5"/>
<path d="M78.4099 32.4147C78.4099 28.2018 78.509 23.3941 78.509 20.9159L75.4856 19.9742V14.0761C75.8821 13.9274 77.9142 13.3327 80.2437 13.3327C84.6053 13.3327 86.6374 14.5222 86.6374 20.4698V38.5606H79.2029C78.7568 37.718 78.4099 35.3885 78.4099 32.4147ZM77.7655 5.30332C77.7655 2.52775 79.9463 0.941711 82.9202 0.941711C85.3488 0.941711 87.3809 2.23037 87.3809 5.00594C87.3809 7.88064 85.4975 9.51624 82.1767 9.51624C79.4507 9.5658 77.7655 7.83107 77.7655 5.30332Z" fill="#CEB3D5"/>
<path d="M93.7746 20.6681L90.5034 19.4785V14.2743L94.3198 13.6796V7.53366L100.961 6.59195C101.655 7.68235 102.052 9.6649 102.052 12.0935V13.9274H109.685V19.6272C109.04 20.2715 107.405 20.8167 105.075 20.8167C103.985 20.8167 102.795 20.7176 102.052 20.7176V29.0939C102.052 31.8199 102.944 32.6129 105.075 32.6129C106.314 32.6129 107.553 32.266 108.991 31.8695L110.23 37.0241C107.752 38.5606 105.075 39.2049 101.854 39.2049C97.0954 39.2049 93.7746 37.3215 93.7746 31.3738V20.6681V20.6681Z" fill="#CEB3D5"/>
<path d="M163.213 21.9568C163.213 10.458 169.706 2.03214 181.8 2.03214C185.765 2.03214 190.176 2.92428 192.307 5.05552L190.374 11.3006C187.5 10.111 184.526 9.81365 181.899 9.81365C175.753 9.81365 172.036 13.2831 172.036 20.6185C172.036 27.954 175.902 31.5226 182.097 31.5226C185.567 31.5226 188.987 30.7791 192.059 28.9948L194.141 35.0416C191.118 37.9163 185.121 39.2545 180.263 39.2545C169.508 39.3041 163.213 32.6625 163.213 21.9568Z" fill="#CEB3D5"/>
<path d="M196.372 31.2747C196.372 26.2192 199.891 23.9393 205.59 23.9393C207.771 23.9393 210.299 24.2863 212.034 24.9306V22.7993C212.034 20.4698 211.489 19.1316 207.523 19.1316C205.343 19.1316 202.369 19.5281 200.238 20.3707L198.652 15.8108C201.179 13.4814 205.392 12.5892 208.515 12.5892C216.494 12.5892 219.419 15.5135 219.419 21.7089L219.369 31.8199L222.145 32.266V37.8667C221.054 38.5606 218.527 38.9571 217.734 38.9571C215.305 38.9571 213.57 38.6102 212.43 35.9833C211.092 38.3128 207.722 39.3536 204.55 39.3536C199.841 39.3041 196.372 36.7268 196.372 31.2747ZM211.935 31.9686V28.5487C210.398 28.3009 208.614 28.1522 207.176 28.1522C204.649 28.1522 203.608 29.1931 203.608 30.5313C203.608 32.1173 204.5 33.6042 207.077 33.6042C209.06 33.6538 210.894 33.1582 211.935 31.9686Z" fill="#CEB3D5"/>
<path d="M226.754 20.6681L223.483 19.4785V14.2743L227.299 13.6796V7.53366L233.941 6.59195C234.635 7.68235 235.031 9.6649 235.031 12.0935V13.9274H242.615V19.6272C241.97 20.2715 240.335 20.8167 238.005 20.8167C236.915 20.8167 235.725 20.7176 234.982 20.7176V29.0939C234.982 31.8199 235.874 32.6129 238.005 32.6129C239.244 32.6129 240.483 32.266 241.921 31.8695L243.16 37.0241C240.682 38.5606 238.005 39.2049 234.783 39.2049C230.025 39.2049 226.705 37.3215 226.705 31.3738V20.6681H226.754Z" fill="#CEB3D5"/>
<path d="M247.125 30.3826C249.504 32.4643 252.874 33.2077 255.501 33.2077C258.128 33.2077 260.061 32.5138 259.764 30.3826C256.839 27.6566 246.084 28.4992 246.084 20.7177C246.084 16.1082 249.851 12.4405 256.393 12.4405C259.516 12.4405 263.035 12.9362 265.711 14.9187L264.324 20.222C261.102 18.8838 258.921 18.5369 256.492 18.5369C254.163 18.5369 253.073 19.3299 253.221 20.8664C253.965 22.0063 255.402 22.502 258.822 23.1959C262.737 23.9393 267 24.9306 267 30.2339C267 36.1816 262.44 39.4032 255.699 39.4032C251.437 39.4032 247.075 38.065 245.142 35.7355L247.125 30.3826Z" fill="#CEB3D5"/>
<path d="M144.28 31.7208C144.28 31.7208 144.429 31.7208 144.627 31.6712C144.776 31.6217 144.627 31.7704 144.627 31.7704L144.478 31.8199H144.33" fill="#CEB3D5"/>
<path d="M143.239 31.3243C143.239 31.3243 143.239 31.5721 143.537 31.5721V31.6713L143.338 31.7208H143.19L143.14 31.5721" fill="#CEB3D5"/>
<path d="M161.033 33.5051C160.983 33.406 160.933 33.3069 160.884 33.2573L160.834 33.2077C160.636 33.059 160.24 33.1086 159.893 33.2077C159.843 33.2077 159.744 33.2573 159.694 33.2573H159.645L158.654 33.6042C157.365 34.0007 156.572 34.0999 156.324 34.1494C155.977 34.1494 155.729 34.1494 155.481 34.1494H155.432C154.639 34.0999 154.391 33.9512 154.341 33.8521C154.341 33.8521 154.242 33.7034 154.441 33.6042C154.49 33.6042 154.49 33.5547 154.54 33.5547C154.639 33.5051 154.738 33.5051 154.887 33.4555C154.986 33.4555 155.035 33.4555 155.134 33.406C155.828 33.3069 157.811 32.9599 160.14 31.6217C160.24 31.5226 160.339 31.473 160.438 31.3739L160.537 31.3243C160.686 31.1756 160.785 30.9774 160.785 30.8782V30.8287V30.7791V30.7295C160.785 30.4322 160.636 30.2835 160.587 30.2339L160.537 30.1843C160.339 30.0356 159.992 30.0852 159.744 30.1348C159.546 30.1843 159.397 30.2339 159.397 30.2339C159.298 30.2835 159.199 30.333 159.05 30.3826C158.802 30.4817 158.505 30.5808 158.108 30.7295C158.009 30.7791 157.86 30.7791 157.761 30.8287C156.671 31.126 155.828 31.1756 155.481 31.2252C155.184 31.2252 154.936 31.2252 154.936 31.2252C154.788 31.2252 154.441 31.2252 154.441 31.0765C154.441 30.9278 154.589 30.8287 154.986 30.5313C155.135 30.4322 155.333 30.2835 155.581 30.0852C156.324 29.54 156.374 28.8957 156.423 28.6974L156.473 28.4C156.522 28.3009 156.522 28.1027 156.522 28.1027C156.572 28.0531 156.572 27.954 156.572 27.8548C156.621 27.607 156.473 27.5575 156.374 27.5575H156.324C156.225 27.5575 156.175 27.5079 156.175 27.5079C155.977 27.4583 155.68 27.2601 155.432 26.814C155.333 26.6157 155.184 26.4671 154.986 26.3184L154.936 26.2688C154.887 26.2688 154.887 26.2192 154.837 26.2192C154.837 26.2192 154.837 26.2192 154.788 26.1697C154.49 25.9714 154.193 25.7732 153.945 25.674C152.855 25.1784 151.814 25.2775 151.368 25.3271C151.219 25.3767 151.12 25.3271 151.12 25.2775C151.021 25.1784 150.971 24.9801 150.872 24.8315C150.723 24.4845 150.674 24.1376 150.674 24.1376C150.624 24.0384 150.624 23.8897 150.575 23.8402C150.525 23.741 150.476 23.6915 150.426 23.6915C150.327 23.6419 150.228 23.7411 150.228 23.7411C149.732 24.088 149.286 24.5341 148.889 25.1288C148.741 25.3767 148.295 26.1201 148.146 27.2601C148.146 27.3096 148.146 27.3592 148.146 27.4088C148.146 27.5575 148.146 27.8053 148.146 28.0531C148.146 28.1522 148.146 28.2018 148.146 28.3009C148.146 28.4992 148.196 28.747 148.196 28.9452C148.196 29.0444 148.196 29.3418 148.196 29.54C148.196 29.5896 148.196 29.5896 148.196 29.6391C148.196 29.6887 148.196 29.6887 148.146 29.7383V29.7878C148.146 29.8374 148.096 29.887 148.096 29.9365C148.047 30.0356 147.948 30.0852 147.898 30.1348C146.659 30.9278 145.073 31.1261 144.082 31.1756V4.46075C144.082 4.41118 144.082 4.41118 144.082 4.36162C144.082 3.86598 143.884 3.5686 143.685 3.37034C143.537 3.22165 143.19 3.17209 143.091 3.17209H139.175C139.076 3.17209 138.977 3.17209 138.828 3.17209H138.332C137.936 3.17209 137.638 3.27122 137.341 3.32078C136.845 3.46947 136.499 3.86598 136.449 3.96511L118.457 30.2835C118.358 30.4817 118.11 30.8287 118.061 31.1261C117.962 31.4234 117.863 31.9191 117.813 32.613C117.813 32.6625 117.813 32.6625 117.813 32.7121V34.7938C117.863 35.7355 118.061 37.5693 119.151 38.3128C119.449 38.4615 119.845 38.6102 120.291 38.6597H120.39H135.854V39.2545C135.854 39.6015 135.805 39.998 135.805 40.3449L135.705 42.3275C135.507 44.31 135.21 46.3421 134.764 48.4734C134.566 49.2168 134.318 50.109 134.268 50.109C134.119 50.4559 134.02 50.7037 134.02 50.7037C133.773 51.1994 133.475 51.7446 133.277 52.1411L133.227 52.1907C133.178 52.2898 133.079 52.5376 133.079 52.7358C133.079 52.7854 133.128 52.8845 133.128 52.9341C133.128 52.9341 133.128 52.9341 133.128 52.9837C133.128 52.9837 133.128 53.0332 133.178 53.0332L133.227 53.0828C133.227 53.0828 133.227 53.0828 133.277 53.1324C133.376 53.2315 133.574 53.4297 133.822 53.5289C133.872 53.5289 133.921 53.5784 133.971 53.5784C134.318 53.628 134.764 53.5289 135.259 52.835C135.309 52.7854 135.359 52.6863 135.408 52.6367C135.458 52.5872 135.458 52.5376 135.507 52.4385C135.557 52.3889 135.606 52.2898 135.606 52.2402C135.805 51.8437 136.201 51.1002 136.449 50.7533C136.449 50.7533 136.449 50.7037 136.499 50.7037C136.499 50.7037 136.499 50.7037 136.548 50.6542C136.548 50.6046 136.598 50.6046 136.598 50.555L136.647 50.5055L136.697 50.4559C136.746 50.4559 136.796 50.4064 136.845 50.4064C136.895 50.4064 136.945 50.4064 136.994 50.4064C137.044 50.4064 137.093 50.4559 137.143 50.5055C137.143 50.5055 137.143 50.5055 137.192 50.555C137.192 50.6046 137.242 50.6046 137.242 50.6542V50.7037V50.7533C136.598 52.3393 135.854 53.5289 135.21 54.3219C134.02 55.8584 132.93 56.5027 132.93 56.5027C132.484 56.7505 132.385 57.3453 132.682 57.7914C133.029 58.2374 133.624 58.3861 134.119 58.1383C134.219 58.0887 135.755 57.1966 137.341 54.9662C137.936 54.1236 138.531 53.0828 139.076 51.7941C139.076 51.7941 139.125 51.695 139.175 51.6454L139.225 51.5959C139.225 51.5959 139.225 51.5959 139.274 51.5959C139.274 51.5959 139.324 51.5959 139.373 51.5959C139.423 51.5959 139.472 51.5959 139.522 51.6454L139.571 51.695C139.571 51.695 139.571 51.695 139.571 51.7446C139.77 52.042 139.571 52.488 139.423 52.7854L138.382 54.7184L138.283 54.9167L138.085 55.2636C138.085 55.2636 137.837 55.7097 138.184 56.1062C138.382 56.354 138.729 56.5523 139.026 56.5523C139.125 56.5523 139.423 56.5523 139.77 56.2053C139.77 56.1557 139.819 56.1557 139.819 56.1062C140.265 55.6105 141.009 54.5697 141.653 53.2315C142.099 52.3393 142.496 51.0011 142.793 50.0098C142.942 49.6133 143.041 49.1673 143.14 48.7212V48.6716C143.289 47.8786 143.388 47.0856 143.487 46.243C143.884 43.7152 144.032 41.1379 144.032 38.7093C147.204 38.6102 152.656 38.0154 158.554 35.6859L158.307 35.7355C158.505 35.6859 158.703 35.6364 158.852 35.5372C159.248 35.3885 160.24 34.9425 160.587 34.2981C160.587 34.2486 160.636 34.199 160.636 34.199C161.132 33.9016 161.132 33.7034 161.033 33.5051ZM136.003 30.9774C136.003 30.9774 136.003 31.2252 135.805 31.2252H126.09C125.892 31.2252 125.941 31.126 125.941 31.0765L135.656 16.6534C135.656 16.6534 136.003 16.4552 136.003 16.9508V30.9774ZM153.598 27.954C153.548 27.8548 153.548 27.7557 153.598 27.7062C153.697 27.6566 153.796 27.6566 153.895 27.7062C153.945 27.7557 154.143 27.9044 154.341 27.9044C154.49 27.9044 154.589 27.8053 154.738 27.607C154.788 27.5079 154.936 27.5079 154.986 27.5575C155.085 27.607 155.085 27.7557 155.035 27.8053C154.936 27.954 154.788 28.1027 154.688 28.2018C154.589 28.2514 154.49 28.3009 154.391 28.3009C153.895 28.3009 153.598 27.954 153.598 27.954Z" fill="#CEB3D5"/>
</svg>
